<?xml version="1.0" encoding="UTF-8"?>
<svg xmlns="http://www.w3.org/2000/svg"
     width="1410" height="205"
     viewBox="0 0 1410 205"
     style="background:#FFFFFF;">

  <!-- ═══════════════════════════════════════════════
       Logger  «client»  (far left)
       x=15, y=25, w=265, h=135
  ════════════════════════════════════════════════ -->
  <g>
    <rect x="15" y="25" width="265" height="135" rx="2.5" ry="2.5"
          fill="#E6FFE6" style="stroke:#181818;stroke-width:0.5;"/>
    <ellipse cx="100" cy="47" rx="11" ry="11"
             fill="#ADD1B2" style="stroke:#181818;stroke-width:1;"/>
    <text fill="#000" font-family="sans-serif" font-size="11"
          font-weight="bold" x="95" y="52">C</text>
    <text fill="#000" font-family="sans-serif" font-size="12"
          font-style="italic" x="119" y="43">«client»</text>
    <text fill="#000" font-family="sans-serif" font-size="14"
          font-weight="bold" x="113" y="62">Logger</text>
    <line x1="16"  x2="279" y1="70"  y2="70"  style="stroke:#181818;stroke-width:0.5;"/>
    <rect fill="none" height="6" style="stroke:#C82930;stroke-width:1;" width="6" x="23" y="79"/>
    <text fill="#000" font-family="sans-serif" font-size="13" x="35" y="86">output: LogOutput</text>
    <line x1="16"  x2="279" y1="94"  y2="94"  style="stroke:#181818;stroke-width:1;"/>
    <ellipse cx="23" cy="108" rx="3" ry="3" fill="#84BE84" style="stroke:#038048;stroke-width:1;"/>
    <text fill="#000" font-family="sans-serif" font-size="13" x="32" y="112">log(LoggerLevel, String): void</text>
    <ellipse cx="23" cy="125" rx="3" ry="3" fill="#84BE84" style="stroke:#038048;stroke-width:1;"/>
    <text fill="#000" font-family="sans-serif" font-size="13" x="32" y="129">setOutput(LogOutput): void</text>
  </g>

  <!-- ═══════════════════════════════════════════════
       LogOutput  «interface»  (target interface)
       x=310, y=25, w=370, h=110
  ════════════════════════════════════════════════ -->
  <g>
    <rect x="310" y="25" width="370" height="110" rx="2.5" ry="2.5"
          fill="#FFE6E6" style="stroke:#181818;stroke-width:0.5;"/>
    <ellipse cx="425" cy="47" rx="11" ry="11"
             fill="#B4A7E5" style="stroke:#181818;stroke-width:1;"/>
    <text fill="#000" font-family="sans-serif" font-size="11"
          font-weight="bold" x="421" y="52">I</text>
    <text fill="#000" font-family="sans-serif" font-size="12"
          font-style="italic" x="445" y="43">«interface»</text>
    <text fill="#000" font-family="sans-serif" font-size="14"
          font-style="italic" font-weight="bold" x="450" y="62">LogOutput</text>
    <line x1="311" x2="679" y1="70"  y2="70"  style="stroke:#181818;stroke-width:0.5;"/>
    <line x1="311" x2="679" y1="78"  y2="78"  style="stroke:#181818;stroke-width:0.5;"/>
    <ellipse cx="318" cy="91" rx="3" ry="3" fill="#84BE84" style="stroke:#038048;stroke-width:1;"/>
    <text fill="#000" font-family="sans-serif" font-size="13"
          font-style="italic" x="327" y="95">log(LoggerLevel, String): void</text>
    <ellipse cx="318" cy="108" rx="3" ry="3" fill="#84BE84" style="stroke:#038048;stroke-width:1;"/>
    <text fill="#000" font-family="sans-serif" font-size="13"
          font-style="italic" x="327" y="112">log(LoggerLevel, String, Throwable): void</text>
  </g>

  <!-- ═══════════════════════════════════════════════
       FileLogOutputterAdapter  «adapter»  (center-right)
       x=715, y=25, w=380, h=135
  ════════════════════════════════════════════════ -->
  <g>
    <rect x="715" y="25" width="380" height="135" rx="2.5" ry="2.5"
          fill="#E6F3FF" style="stroke:#181818;stroke-width:0.5;"/>
    <ellipse cx="800" cy="47" rx="11" ry="11"
             fill="#ADD1B2" style="stroke:#181818;stroke-width:1;"/>
    <text fill="#000" font-family="sans-serif" font-size="11"
          font-weight="bold" x="795" y="52">C</text>
    <text fill="#000" font-family="sans-serif" font-size="12"
          font-style="italic" x="820" y="43">«adapter»</text>
    <text fill="#000" font-family="sans-serif" font-size="14"
          font-weight="bold" x="815" y="62">FileLogOutputterAdapter</text>
    <line x1="716" x2="1094" y1="70"  y2="70"  style="stroke:#181818;stroke-width:0.5;"/>
    <rect fill="none" height="6" style="stroke:#C82930;stroke-width:1;" width="6" x="723" y="79"/>
    <text fill="#000" font-family="sans-serif" font-size="13" x="735" y="86">adaptee: FileLogOutputter</text>
    <line x1="716" x2="1094" y1="94"  y2="94"  style="stroke:#181818;stroke-width:1;"/>
    <ellipse cx="723" cy="108" rx="3" ry="3" fill="#84BE84" style="stroke:#038048;stroke-width:1;"/>
    <text fill="#000" font-family="sans-serif" font-size="13" x="732" y="112">log(LoggerLevel, String): void</text>
    <ellipse cx="723" cy="125" rx="3" ry="3" fill="#84BE84" style="stroke:#038048;stroke-width:1;"/>
    <text fill="#000" font-family="sans-serif" font-size="13" x="732" y="129">log(LoggerLevel, String, Throwable): void</text>
  </g>

  <!-- ═══════════════════════════════════════════════
       FileLogOutputter  «adaptee»  (far right, library)
       x=1130, y=25, w=265, h=155
  ════════════════════════════════════════════════ -->
  <g>
    <rect x="1130" y="25" width="265" height="155" rx="2.5" ry="2.5"
          fill="#FFFDE6" style="stroke:#181818;stroke-width:0.5;"/>
    <ellipse cx="1180" cy="47" rx="11" ry="11"
             fill="#ADD1B2" style="stroke:#181818;stroke-width:1;"/>
    <text fill="#000" font-family="sans-serif" font-size="11"
          font-weight="bold" x="1175" y="52">C</text>
    <text fill="#000" font-family="sans-serif" font-size="12"
          font-style="italic" x="1200" y="43">«adaptee»</text>
    <text fill="#000" font-family="sans-serif" font-size="14"
          font-weight="bold" x="1192" y="62">FileLogOutputter</text>
    <line x1="1131" x2="1394" y1="70"  y2="70"  style="stroke:#181818;stroke-width:0.5;"/>
    <line x1="1131" x2="1394" y1="78"  y2="78"  style="stroke:#181818;stroke-width:0.5;"/>
    <ellipse cx="1138" cy="91" rx="3" ry="3" fill="#84BE84" style="stroke:#038048;stroke-width:1;"/>
    <text fill="#000" font-family="sans-serif" font-size="13" x="1147" y="95">logInfo(String): void</text>
    <ellipse cx="1138" cy="108" rx="3" ry="3" fill="#84BE84" style="stroke:#038048;stroke-width:1;"/>
    <text fill="#000" font-family="sans-serif" font-size="13" x="1147" y="112">logWarning(String): void</text>
    <ellipse cx="1138" cy="125" rx="3" ry="3" fill="#84BE84" style="stroke:#038048;stroke-width:1;"/>
    <text fill="#000" font-family="sans-serif" font-size="13" x="1147" y="129">logError(String): void</text>
    <line x1="1131" x2="1394" y1="138" y2="138" style="stroke:#181818;stroke-width:0.5;"/>
    <text fill="#888" font-family="sans-serif" font-size="11"
          font-style="italic" x="1138" y="153">// loggingLibrary — do not modify</text>
  </g>

  <!-- ═══════════════════════════════════════════════
       ARROWS
  ════════════════════════════════════════════════ -->

  <!-- 1. Logger --[uses]--> LogOutput  (solid + filled arrowhead) -->
  <path d="M280,80 L310,80" fill="none" style="stroke:#181818;stroke-width:1;"/>
  <polygon fill="#181818" points="310,80 298,74 298,86" style="stroke:#181818;stroke-width:1;"/>
  <text fill="#555" font-family="sans-serif" font-size="12" x="282" y="73">uses</text>

  <!-- 2. FileLogOutputterAdapter ---[implements]--> LogOutput  (dashed + open triangle) -->
  <!-- arrow goes FROM Adapter LEFT to LogOutput, open triangle apex at LogOutput right edge -->
  <path d="M715,86 L691,86" fill="none" style="stroke:#181818;stroke-width:1;stroke-dasharray:6,6;"/>
  <polygon fill="none" points="680,86 691,80 691,92" style="stroke:#181818;stroke-width:1;"/>
  <text fill="#555" font-family="sans-serif" font-size="12" x="674" y="73">implements</text>

  <!-- 3. FileLogOutputterAdapter --[wraps]--> FileLogOutputter  (solid + filled arrowhead) -->
  <path d="M1095,92 L1130,92" fill="none" style="stroke:#181818;stroke-width:1;"/>
  <polygon fill="#181818" points="1130,92 1118,86 1118,98" style="stroke:#181818;stroke-width:1;"/>
  <text fill="#555" font-family="sans-serif" font-size="12" x="1097" y="73">wraps</text>

</svg>
